<?xml version="1.0" encoding="utf-8"?>
<!-- Generator: Adobe Illustrator 15.0.2, SVG Export Plug-In . SVG Version: 6.00 Build 0)  -->
<!DOCTYPE svg PUBLIC "-//W3C//DTD SVG 1.1//EN" "http://www.w3.org/Graphics/SVG/1.1/DTD/svg11.dtd">
<svg version="1.1" xmlns="http://www.w3.org/2000/svg" xmlns:xlink="http://www.w3.org/1999/xlink" x="0px" y="0px" width="72px"
	 height="72px" viewBox="0 0 72 72" enable-background="new 0 0 72 72" xml:space="preserve">
<g id="Background" display="none">
</g>
<g id="Symbols_-_light_-_old" display="none">
	<rect x="3.429" y="34.285" display="inline" fill="#C6C6C6" width="65.143" height="3.43"/>
	<rect x="34.286" y="65.142" display="inline" fill="#C6C6C6" width="34.286" height="3.43"/>
	<rect x="3.429" y="3.427" display="inline" fill="#C6C6C6" width="34.286" height="3.43"/>
	<g display="inline">
		<line fill="#FFC6C6" x1="20.571" y1="6.857" x2="20.571" y2="34.286"/>
		<g>
			<line fill="none" stroke="#C6C6C6" stroke-width="16" stroke-miterlimit="10" x1="20.571" y1="6.857" x2="20.571" y2="21.666"/>
			<g>
				<polygon fill="#C6C6C6" points="35.189,19.711 6.031,19.711 20.609,34.286 				"/>
			</g>
		</g>
	</g>
	<g display="inline">
		<line fill="#C6C6C6" x1="51.429" y1="37.715" x2="51.429" y2="65.144"/>
		<g>
			<line fill="none" stroke="#C6C6C6" stroke-width="16" stroke-miterlimit="10" x1="51.429" y1="37.715" x2="51.429" y2="52.523"/>
			<g>
				<polygon fill="#C6C6C6" points="66.047,50.569 36.888,50.569 51.466,65.144 				"/>
			</g>
		</g>
	</g>
</g>
<g id="Symbols_-_old" display="none">
	<rect x="3.429" y="34.285" display="inline" width="65.143" height="3.429"/>
	<rect x="34.286" y="65.142" display="inline" width="34.286" height="3.43"/>
	<rect x="3.429" y="3.426" display="inline" width="34.286" height="3.43"/>
	<g display="inline">
		<line x1="20.571" y1="6.857" x2="20.571" y2="34.286"/>
		<g>
			<line fill="none" stroke="#000000" stroke-width="16" stroke-miterlimit="10" x1="20.571" y1="6.857" x2="20.571" y2="21.666"/>
			<g>
				<polygon points="35.189,19.711 6.031,19.711 20.609,34.286 				"/>
			</g>
		</g>
	</g>
	<g display="inline">
		<line x1="51.429" y1="37.714" x2="51.429" y2="65.143"/>
		<g>
			<line fill="none" stroke="#000000" stroke-width="16" stroke-miterlimit="10" x1="51.429" y1="37.714" x2="51.429" y2="52.522"/>
			<g>
				<polygon points="66.047,50.568 36.888,50.568 51.467,65.143 				"/>
			</g>
		</g>
	</g>
</g>
<g id="Symbols_-_light" display="none">
	<g display="inline">
		<line x1="36" y1="0" x2="36" y2="36"/>
		<g>
			<line fill="none" stroke="#C4C4C4" stroke-width="16" stroke-miterlimit="10" x1="36" y1="0" x2="36" y2="19.173"/>
			<g>
				<polygon fill="#C4C4C4" points="55.49,16.567 16.612,16.567 36.05,36 				"/>
			</g>
		</g>
	</g>
	<rect y="36" display="inline" fill="#C4C4C4" width="72" height="2.125"/>
	<g display="inline">
		<line x1="36" y1="36" x2="36" y2="72"/>
		<g>
			<line fill="none" stroke="#C4C4C4" stroke-width="16" stroke-miterlimit="10" x1="36" y1="36" x2="36" y2="55.174"/>
			<g>
				<polygon fill="#C4C4C4" points="55.49,52.567 16.612,52.567 36.05,72 				"/>
			</g>
		</g>
	</g>
</g>
<g id="Symbols" display="none">
	<g display="inline">
		<g>
			<line x1="36" y1="72" x2="36" y2="38.25"/>
			<g>
				<line fill="none" stroke="#212121" stroke-width="16" stroke-miterlimit="10" x1="36" y1="72" x2="36" y2="55.076"/>
				<g>
					<polygon fill="#212121" points="16.509,57.683 55.388,57.683 35.95,38.25 					"/>
				</g>
			</g>
		</g>
		<rect x="9" y="33.875" fill="#212121" width="54" height="4.375"/>
		<g>
			<line x1="36" y1="36" x2="36" y2="0"/>
			<g>
				<line fill="none" stroke="#212121" stroke-width="16" stroke-miterlimit="10" x1="36" y1="36" x2="36" y2="16.827"/>
				<g>
					<polygon fill="#212121" points="16.509,19.433 55.388,19.433 35.95,0 					"/>
				</g>
			</g>
		</g>
	</g>
</g>
<g id="Disabled_symbols">
	<g>
		<line x1="36" y1="72" x2="36" y2="38.25"/>
		<g>
			<line fill="none" stroke="#585858" stroke-width="16" stroke-miterlimit="10" x1="36" y1="72" x2="36" y2="55.076"/>
			<g>
				<polygon fill="#585858" points="16.509,57.683 55.388,57.683 35.95,38.25 				"/>
			</g>
		</g>
	</g>
	<rect x="9" y="33.875" fill="#585858" width="54" height="4.375"/>
	<g>
		<line x1="36" y1="36" x2="36" y2="0"/>
		<g>
			<line fill="none" stroke="#585858" stroke-width="16" stroke-miterlimit="10" x1="36" y1="36" x2="36" y2="16.827"/>
			<g>
				<polygon fill="#585858" points="16.509,19.433 55.388,19.433 35.95,0 				"/>
			</g>
		</g>
	</g>
</g>
<g id="Disable_X">
	<g>
		<line fill="#D10000" stroke="#A81F20" stroke-width="20" stroke-miterlimit="10" x1="9" y1="9" x2="63" y2="63"/>
		<line fill="#D10000" stroke="#A81F20" stroke-width="20" stroke-miterlimit="10" x1="9" y1="63" x2="63" y2="9"/>
	</g>
</g>
</svg>
